<svg version="1.1" xmlns="http://www.w3.org/2000/svg" xmlns:xlink="http://www.w3.org/1999/xlink" xmlns:ev="http://www.w3.org/2001/xml-events" width="993.9939900000055" height="162.000003" viewBox="0.0 10.316697 993.9939900000055 162.000003"><path d="M 0.0,91.316697 3.003003,89.772829 3.003003,92.86056500000001 6.006006,85.831152 6.006006,96.802242 9.009009,85.604677 9.009009,97.028717 12.012012,81.478089 12.012012,101.1553 15.015015,81.028401 15.015015,101.60499 18.018018,29.684202 18.018018,152.94919 21.021021,45.771943 21.021021,136.86145 24.024024,75.249691 24.024024,107.3837 27.027027,69.597773 27.027027,113.03562 30.03003,72.528307 30.03003,110.10509 33.033033,63.232332 33.033033,119.40106 36.036036,62.035637 36.036036,120.59776 39.039039,64.917918 39.039039,117.71548 42.042042,41.108045 42.042042,141.52535 45.045045,48.379273 45.045045,134.25412 48.048048,49.282956 48.048048,133.35044 51.051051,65.46758899999999 51.051051,117.16581 54.054054,58.22658899999999 54.054054,124.40681 57.057057,73.09745999999998 57.057057,109.53592999999998 60.06006,66.021921 60.06006,116.61147 63.063063,68.899231 63.063063,113.73416 66.066066,39.720426 66.066066,142.91297 69.069069,38.685203 69.069069,143.94819 72.072072,57.243712 72.072072,125.38968 75.075075,63.639957 75.075075,118.99344 78.078078,39.833209 78.078078,142.80019 81.081081,23.44612 81.081081,159.18727 84.084084,48.843123 84.084084,133.79027 87.087087,43.655086 87.087087,138.97831 90.09009,68.817726 90.09009,113.81567 93.093093,68.841228 93.093093,113.79217 96.096096,72.555141 96.096096,110.07825 99.099099,72.862264 99.099099,109.77113 102.1021,74.437728 102.1021,108.19567 105.10511,75.301693 105.10511,107.3317 108.10811,67.68272999999999 108.10811,114.95066 111.11111,43.325855000000004 111.11111,139.30754000000002 114.11411,44.32848300000002 114.11411,138.30491 117.11712,63.76612800000001 117.11712,118.86727000000002 120.12012,62.70780600000002 120.12012,119.92559000000003 123.12312,57.858453000000026 123.12312,124.77494000000003 126.12613,66.18192400000004 126.12613,116.45147000000003 129.12913,76.69718200000003 129.12913,105.93621000000003 132.13213000000002,77.89279600000003 132.13213000000002,104.7406 135.13514,76.667057 135.13514,105.96634 138.13814000000002,61.571193 138.13814000000002,121.0622 141.14114,67.06095300000001 141.14114,115.57244000000001 144.14414,54.71757800000002 144.14414,127.91582000000001 147.14714999999998,63.044984000000014 147.14714999999998,119.58841000000001 150.15015,55.19923800000001 150.15015,127.43416 153.15314999999998,22.33516800000001 153.15314999999998,160.29823 156.15615999999997,50.040246999999994 156.15615999999997,132.59314999999998 159.15915999999999,69.62112899999998 159.15915999999999,113.01225999999998 162.16215999999997,75.48059799999999 162.16215999999997,107.1528 165.16516999999996,78.139114 165.16516999999996,104.49428 168.16816999999998,74.116247 168.16816999999998,108.51715 171.17116999999996,55.108132 171.17116999999996,127.52526 174.17416999999995,63.923309 174.17416999999995,118.71008 177.17717999999994,67.508556 177.17717999999994,115.12484 180.18017999999995,62.524398000000005 180.18017999999995,120.109 183.18317999999994,61.004791999999995 183.18317999999994,121.6286 186.18618999999993,63.215604000000006 186.18618999999993,119.41779 189.18918999999994,76.08189899999999 189.18918999999994,106.55149 192.19218999999993,66.845369 192.19218999999993,115.78803 195.19519999999991,60.141059000000006 195.19519999999991,122.49233000000001 198.19819999999993,54.461629000000016 198.19819999999993,128.17176 201.20119999999991,64.40151900000001 201.20119999999991,118.23187000000001 204.2041999999999,61.14221600000001 204.2041999999999,121.49118000000001 207.2072099999999,64.27242300000002 207.2072099999999,118.36097000000001 210.2102099999999,68.596652 210.2102099999999,114.03674000000001 213.2132099999999,69.38759900000001 213.2132099999999,113.24579 216.21621999999988,71.77919399999999 216.21621999999988,110.8542 219.2192199999999,72.23050500000001 219.2192199999999,110.40289000000001 222.22221999999988,57.95495200000001 222.22221999999988,124.67844000000002 225.22522999999987,74.94723800000003 225.22522999999987,107.68616000000003 228.22822999999988,65.63418600000003 228.22822999999988,116.99921000000003 231.23122999999987,60.02671200000003 231.23122999999987,122.60668000000004 234.23422999999985,61.37321100000004 234.23422999999985,121.26018000000005 237.23723999999984,61.29499600000005 237.23723999999984,121.3384 240.24023999999986,51.707576999999986 240.24023999999986,130.92582 243.24323999999984,72.35581799999999 243.24323999999984,110.27757999999999 246.24624999999983,54.80472799999998 246.24624999999983,127.82866999999999 249.24924999999985,62.92398999999999 249.24924999999985,119.70939999999999 252.25224999999983,69.82101699999998 252.25224999999983,112.81237999999999 255.25525999999982,40.840166999999994 255.25525999999982,141.79323 258.25825999999984,69.66699399999999 258.25825999999984,112.9664 261.2612599999998,76.51336799999999 261.2612599999998,106.12002999999999 264.2642599999998,66.45554599999998 264.2642599999998,116.17784999999998 267.2672699999998,69.73536299999998 267.2672699999998,112.89802999999998 270.2702699999998,74.52112299999997 270.2702699999998,108.11226999999997 273.2732699999998,70.47896199999997 273.2732699999998,112.15442999999996 276.2762799999998,74.86276199999996 276.2762799999998,107.77062999999995 279.2792799999998,70.09726999999995 279.2792799999998,112.53611999999995 282.2822799999998,63.653278999999955 282.2822799999998,118.98010999999995 285.2852899999998,71.72223699999995 285.2852899999998,110.91115999999995 288.2882899999998,76.80757999999994 288.2882899999998,105.82580999999995 291.2912899999998,73.98612699999995 291.2912899999998,108.64726999999996 294.29428999999976,70.36191899999997 294.29428999999976,112.27146999999997 297.2972999999998,73.56007099999997 297.2972999999998,109.07331999999997 300.30029999999977,59.34343599999997 300.30029999999977,123.28995999999997 303.30329999999975,54.400398999999965 303.30329999999975,128.233 306.30630999999977,65.922533 306.30630999999977,116.71086 309.30930999999975,74.429042 309.30930999999975,108.20435 312.31230999999974,74.35023100000001 312.31230999999974,108.28316000000001 315.31531999999976,61.73652500000001 315.31531999999976,120.89687 318.31831999999974,68.738575 318.31831999999974,113.89482 321.32131999999973,65.013319 321.32131999999973,117.62007 324.3243199999997,52.894091 324.3243199999997,129.7393 327.32732999999973,70.87524899999998 327.32732999999973,111.75814999999997 330.3303299999997,63.30215799999997 330.3303299999997,119.33123999999998 333.3333299999997,74.11034699999999 333.3333299999997,108.52304999999998 336.3363399999997,71.998753 336.3363399999997,110.63463999999999 339.3393399999997,44.632729999999995 339.3393399999997,138.00065999999998 342.3423399999997,66.78833899999998 342.3423399999997,115.84505999999999 345.3453499999997,59.59533499999999 345.3453499999997,123.03806 348.3483499999997,72.272728 348.3483499999997,110.36067 351.3513499999997,69.81777 351.3513499999997,112.81562 354.35434999999967,70.723998 354.35434999999967,111.9094 357.3573599999997,76.36100300000001 357.3573599999997,106.27239000000002 360.3603599999997,47.856029000000014 360.3603599999997,134.77736000000002 363.36335999999966,46.602812000000014 363.36335999999966,136.03058000000001 366.3663699999997,70.05828700000002 366.3663699999997,112.57511000000002 369.36936999999966,65.07749700000002 369.36936999999966,117.5559 372.37236999999965,54.439440999999995 372.37236999999965,128.19395 375.37537999999967,47.763137 375.37537999999967,134.87026 378.37837999999965,54.046366000000006 378.37837999999965,128.58703000000003 381.38137999999964,66.31190100000003 381.38137999999964,116.32149000000004 384.3843799999996,58.73900800000004 384.3843799999996,123.89439000000004 387.38738999999964,57.84560500000005 387.38738999999964,124.78779000000004 390.3903899999996,57.878303000000045 390.3903899999996,124.75509000000004 393.3933899999996,67.13671400000004 393.3933899999996,115.49668000000004 396.39639999999963,65.83472200000004 396.39639999999963,116.79867000000004 399.3993999999996,76.99802000000005 399.3993999999996,105.63537000000005 402.4023999999996,76.61967700000005 402.4023999999996,106.01372000000005 405.4054099999996,75.02340100000005 405.4054099999996,107.60999000000004 408.4084099999996,77.55525200000004 408.4084099999996,105.07814000000003 411.4114099999996,76.20242700000003 411.4114099999996,106.43097000000003 414.4144099999996,70.10119600000003 414.4144099999996,112.5322 417.4174199999996,68.004709 417.4174199999996,114.62868 420.4204199999996,61.285411 420.4204199999996,121.34798 423.42341999999957,54.97998100000001 423.42341999999957,127.65341000000001 426.4264299999996,73.86104800000001 426.4264299999996,108.77235000000002 429.42942999999957,70.04371100000002 429.42942999999957,112.58968000000002 432.43242999999956,74.43486000000001 432.43242999999956,108.19853 435.4354399999996,71.401185 435.4354399999996,111.23221 438.43843999999956,66.374326 438.43843999999956,116.25907 441.44143999999955,57.526661 441.44143999999955,125.10673 444.44443999999953,68.640945 444.44443999999953,113.99245 447.44744999999955,66.98575100000001 447.44744999999955,115.64764000000001 450.45044999999953,76.83397500000001 450.45044999999953,105.79942000000001 453.4534499999995,55.71960900000001 453.4534499999995,126.91378 456.45645999999954,60.017944 456.45645999999954,122.61545000000001 459.4594599999995,70.00706100000001 459.4594599999995,112.62633000000001 462.4624599999995,67.307929 462.4624599999995,115.32546 465.46547,10.316697 465.46547,172.3167 468.46846999999997,41.80825999999999 468.46846999999997,140.82513 471.47146999999995,65.404114 471.47146999999995,117.22928000000002 474.47446999999994,49.87719200000002 474.47446999999994,132.7562 477.47747999999996,67.23243900000001 477.47747999999996,115.40095000000002 480.48047999999994,74.25877800000002 480.48047999999994,108.37462000000002 483.48347999999993,63.51305100000002 483.48347999999993,119.12034000000003 486.48648999999995,62.86092600000003 486.48648999999995,119.77247000000003 489.48948999999993,68.40364300000002 489.48948999999993,114.22975000000002 492.4924899999999,72.37141500000003 492.4924899999999,110.26198000000002 495.49549999999994,76.43775600000002 495.49549999999994,106.19564000000003 498.4984999999999,77.04063700000003 498.4984999999999,105.59276000000003 501.5014999999999,76.45793300000003 501.5014999999999,106.17546000000003 504.5044999999999,73.02572100000003 504.5044999999999,109.60767000000004 507.5075099999999,73.38362600000005 507.5075099999999,109.24977000000004 510.5105099999999,38.71115700000004 510.5105099999999,143.92224 513.5135099999999,50.83966499999998 513.5135099999999,131.79372999999998 516.5165199999999,65.72722499999998 516.5165199999999,116.90616999999997 519.5195199999999,71.03489099999997 519.5195199999999,111.5985 522.52252,73.189977 522.52252,109.44342 525.52553,64.488779 525.52553,118.14461 528.52853,62.807142 528.52853,119.82625 531.5315300000001,65.66947 531.5315300000001,116.96392 534.5345300000001,71.041746 534.5345300000001,111.59165 537.5375400000001,75.75511399999999 537.5375400000001,106.87827999999999 540.5405400000002,67.151275 540.5405400000002,115.48212 543.5435400000002,67.46283399999999 543.5435400000002,115.17056 546.5465500000003,72.78209999999999 546.5465500000003,109.85128999999998 549.5495500000003,76.67500399999997 549.5495500000003,105.95838999999998 552.5525500000003,60.10066999999998 552.5525500000003,122.53271999999998 555.5555600000004,77.050581 555.5555600000004,105.58281 558.5585600000004,77.03195 558.5585600000004,105.60144 561.5615600000004,71.686732 561.5615600000004,110.94666000000001 564.5645600000005,61.500158000000006 564.5645600000005,121.13324 567.5675700000005,68.152609 567.5675700000005,114.48078 570.5705700000005,72.577167 570.5705700000005,110.05623 573.5735700000006,73.776947 573.5735700000006,108.85645000000001 576.5765800000006,52.63923700000001 576.5765800000006,129.99416000000002 579.5795800000006,57.313811000000015 579.5795800000006,125.31958000000002 582.5825800000007,70.15140900000002 582.5825800000007,112.48198000000002 585.5855900000007,74.37454700000002 585.5855900000007,108.25885000000002 588.5885900000007,69.81386600000002 588.5885900000007,112.81953000000001 591.5915900000008,64.15465700000001 591.5915900000008,118.47874000000002 594.5945900000008,68.57716500000001 594.5945900000008,114.05623 597.5976000000009,74.52452199999999 597.5976000000009,108.10887 600.6006000000009,71.20272499999999 600.6006000000009,111.43066999999999 603.6036000000009,73.75753699999999 603.6036000000009,108.87585999999999 606.606610000001,68.48140199999999 606.606610000001,114.15198999999998 609.609610000001,76.70348099999998 609.609610000001,105.92990999999998 612.612610000001,75.97748599999997 612.612610000001,106.65590999999998 615.6156200000011,76.71087799999998 615.6156200000011,105.92251999999998 618.6186200000011,76.43810499999998 618.6186200000011,106.19528999999997 621.6216200000011,78.37438999999998 621.6216200000011,104.259 624.6246200000012,77.643348 624.6246200000012,104.99005 627.6276300000012,76.886528 627.6276300000012,105.74687 630.6306300000012,76.196301 630.6306300000012,106.43709000000001 633.6336300000013,74.486545 633.6336300000013,108.14685 636.6366400000013,75.762529 636.6366400000013,106.87087 639.6396400000014,73.033103 639.6396400000014,109.60029 642.6426400000014,75.29091600000001 642.6426400000014,107.34248000000001 645.6456500000014,65.79352700000001 645.6456500000014,116.83987000000002 648.6486500000015,70.39767200000003 648.6486500000015,112.23572000000003 651.6516500000015,76.56511000000003 651.6516500000015,106.06828000000003 654.6546500000015,77.35837700000003 654.6546500000015,105.27502000000004 657.6576600000016,77.12306600000004 657.6576600000016,105.51033000000004 660.6606600000016,77.00286700000004 660.6606600000016,105.63053000000004 663.6636600000016,75.33361400000004 663.6636600000016,107.29978000000004 666.6666700000017,77.60765400000004 666.6666700000017,105.02574000000004 669.6696700000017,76.56478100000004 669.6696700000017,106.06861000000004 672.6726700000017,76.35474600000003 672.6726700000017,106.27865000000003 675.6756800000018,66.38605400000003 675.6756800000018,116.24734000000004 678.6786800000018,77.22528500000004 678.6786800000018,105.40811000000005 681.6816800000018,71.86325600000005 681.6816800000018,110.77014000000005 684.6846800000019,74.24712400000006 684.6846800000019,108.38627000000005 687.6876900000019,65.53383500000005 687.6876900000019,117.09956000000005 690.690690000002,62.54715800000005 690.690690000002,120.08624000000006 693.693690000002,62.87028000000006 693.693690000002,119.76311000000005 696.696700000002,58.602171000000055 696.696700000002,124.03122000000006 699.699700000002,63.40111700000006 699.699700000002,119.23228000000006 702.7027000000021,61.88538300000006 702.7027000000021,120.74801000000006 705.7057100000021,72.78026100000007 705.7057100000021,109.85313000000006 708.7087100000022,73.49797300000006 708.7087100000022,109.13542000000007 711.7117100000022,75.79887800000006 711.7117100000022,106.83452000000005 714.7147100000022,75.54561400000006 714.7147100000022,107.08778000000007 717.7177200000023,27.616436000000064 717.7177200000023,155.01696 720.7207200000023,46.67863900000002 720.7207200000023,135.95475000000002 723.7237200000023,53.09659700000002 723.7237200000023,129.5368 726.7267300000024,47.537932999999995 726.7267300000024,135.09546 729.7297300000024,55.457662 729.7297300000024,127.17573 732.7327300000024,65.262081 732.7327300000024,117.37131 735.7357400000025,62.128556999999994 735.7357400000025,120.50484 738.7387400000025,68.65725499999999 738.7387400000025,113.97613999999999 741.7417400000026,63.909235999999986 741.7417400000026,118.72415999999998 744.7447400000026,73.66802999999999 744.7447400000026,108.96535999999999 747.7477500000026,45.98864299999999 747.7477500000026,136.64475 750.7507500000027,55.29779899999998 750.7507500000027,127.33558999999998 753.7537500000027,72.66046199999998 753.7537500000027,109.97292999999999 756.7567600000027,71.22214199999999 756.7567600000027,111.41125 759.7597600000028,71.519452 759.7597600000028,111.11394 762.7627600000028,75.872773 762.7627600000028,106.76061999999999 765.7657700000028,70.83237599999998 765.7657700000028,111.80101999999998 768.7687700000029,52.550162999999976 768.7687700000029,130.08323 771.7717700000029,64.30438299999999 771.7717700000029,118.32900999999998 774.774770000003,67.99140699999998 774.774770000003,114.64198999999998 777.777780000003,77.93585799999998 777.777780000003,104.69753999999998 780.780780000003,34.62092199999998 780.780780000003,148.01247 783.783780000003,53.714892000000006 783.783780000003,128.9185 786.7867900000031,63.500615999999994 786.7867900000031,119.13278 789.7897900000031,49.67912 789.7897900000031,132.95427 792.7927900000032,42.492281000000006 792.7927900000032,140.14111000000003 795.7958000000032,47.99960600000003 795.7958000000032,134.63379000000003 798.7988000000032,54.48957600000003 798.7988000000032,128.14382000000003 801.8018000000033,53.25714500000004 801.8018000000033,129.37625000000003 804.8048000000033,63.93782900000002 804.8048000000033,118.69557000000003 807.8078100000033,74.76993300000004 807.8078100000033,107.86346000000003 810.8108100000034,61.13591600000003 810.8108100000034,121.49748000000002 813.8138100000034,67.83070400000003 813.8138100000034,114.80269000000003 816.8168200000034,75.26530400000003 816.8168200000034,107.36809000000002 819.8198200000035,78.51269500000002 819.8198200000035,104.1207 822.8228200000035,73.251728 822.8228200000035,109.38167 825.8258300000035,45.664013 825.8258300000035,136.96938 828.8288300000036,62.410403 828.8288300000036,120.22299000000001 831.8318300000036,75.658128 831.8318300000036,106.97527000000001 834.8348300000036,72.226394 834.8348300000036,110.407 837.8378400000037,76.22471999999999 837.8378400000037,106.40866999999999 840.8408400000037,77.66087099999999 840.8408400000037,104.97251999999999 843.8438400000038,76.416401 843.8438400000038,106.21699 846.8468500000038,76.98808 846.8468500000038,105.64531 849.8498500000038,77.53375399999999 849.8498500000038,105.09964 852.8528500000039,74.15849499999999 852.8528500000039,108.4749 855.8558600000039,76.07774800000001 855.8558600000039,106.55565000000001 858.8588600000039,77.90473000000001 858.8588600000039,104.72866000000002 861.861860000004,76.48747900000002 861.861860000004,106.14592000000002 864.864860000004,73.80567300000001 864.864860000004,108.82772000000001 867.867870000004,75.29438800000001 867.867870000004,107.33901 870.8708700000041,76.21847 870.8708700000041,106.41492 873.8738700000041,74.274078 873.8738700000041,108.35932 876.8768800000041,77.77599 876.8768800000041,104.8574 879.8798800000042,77.456714 879.8798800000042,105.17668 882.8828800000042,78.0336 882.8828800000042,104.59979000000001 885.8858900000042,77.72121700000001 885.8858900000042,104.91218 888.8888900000043,77.27682800000001 888.8888900000043,105.35657 891.8918900000043,77.73389800000001 891.8918900000043,104.8995 894.8948900000044,68.280835 894.8948900000044,114.35256 897.8979000000044,71.63523799999999 897.8979000000044,110.99815999999998 900.9009000000044,60.61547299999999 900.9009000000044,122.01791999999999 903.9039000000045,59.59748499999999 903.9039000000045,123.03591 906.9069100000045,64.239694 906.9069100000045,118.3937 909.9099100000045,72.34708499999999 909.9099100000045,110.28630999999999 912.9129100000046,75.74227299999998 912.9129100000046,106.89111999999999 915.9159200000046,77.75952099999998 915.9159200000046,104.87386999999998 918.9189200000046,78.34594999999999 918.9189200000046,104.28743999999999 921.9219200000047,71.22897899999998 921.9219200000047,111.40440999999998 924.9249200000047,64.13428299999998 924.9249200000047,118.49910999999997 927.9279300000047,67.93920599999997 927.9279300000047,114.69418999999996 930.9309300000048,71.89664199999996 930.9309300000048,110.73674999999996 933.9339300000048,75.23392699999997 933.9339300000048,107.39946999999997 936.9369400000048,77.35847999999996 936.9369400000048,105.27490999999995 939.9399400000049,77.59245099999995 939.9399400000049,105.04093999999995 942.9429400000049,75.84759899999995 942.9429400000049,106.78578999999995 945.9459500000049,75.54235999999995 945.9459500000049,107.09102999999995 948.948950000005,76.42259099999995 948.948950000005,106.2108 951.951950000005,77.54290800000001 951.951950000005,105.09049000000002 954.954950000005,76.53048600000002 954.954950000005,106.10291000000002 957.9579600000051,73.43583100000002 957.9579600000051,109.19756000000002 960.9609600000051,59.791037000000024 960.9609600000051,122.84236000000001 963.9639600000052,66.71074900000002 963.9639600000052,115.92264000000003 966.9669700000052,68.64830400000002 966.9669700000052,113.98509000000001 969.9699700000052,76.45594200000002 969.9699700000052,106.17745000000002 972.9729700000053,70.81561400000002 972.9729700000053,111.81778000000003 975.9759800000053,53.158472000000025 975.9759800000053,129.47492000000003 978.9789800000053,65.69846800000002 978.9789800000053,116.93493000000002 981.9819800000054,63.291856000000024 981.9819800000054,119.34154000000002 984.9849800000054,75.85933900000002 984.9849800000054,106.77405000000002 987.9879900000054,67.79031000000002 987.9879900000054,114.84308000000001 990.9909900000055,73.51788300000001 990.9909900000055,109.11551000000001 993.9939900000055,75.85687000000001 993.9939900000055,106.77652000000002 0.0,91.316697" fill="none" stroke="#008080" stroke-width="3" /></svg>