<svg version="1.1" xmlns="http://www.w3.org/2000/svg" xmlns:xlink="http://www.w3.org/1999/xlink" xmlns:ev="http://www.w3.org/2001/xml-events" width="993.3774799999997" height="208.0000002" viewBox="0.0 -1.5353902 993.3774799999997 208.0000002"><path d="M 0.0,102.46461 3.3112583,102.34209999999999 3.3112583,102.58711999999998 6.6225166,102.32035999999998 6.6225166,102.60885999999998 9.9337748,102.29531999999998 9.9337748,102.63389999999997 13.245033,102.29392999999997 13.245033,102.63528999999997 16.556290999999998,100.10871999999996 16.556290999999998,104.82048999999996 19.867549999999998,100.05517999999996 19.867549999999998,104.87403999999997 23.178807999999997,99.83429999999997 23.178807999999997,105.09491999999997 26.490065999999995,99.77832999999997 26.490065999999995,105.15088999999998 29.801324999999995,99.89691999999998 29.801324999999995,105.03229999999998 33.112582999999994,99.89009999999998 33.112582999999994,105.03911999999997 36.423840999999996,99.57218999999996 36.423840999999996,105.35702999999997 39.735099,99.37672999999997 39.735099,105.55248999999996 43.046358,98.32344999999997 43.046358,106.60576999999996 46.357616,97.74156599999996 46.357616,107.18764999999996 49.668874,97.40413099999996 49.668874,107.52509 52.980132,95.439819 52.980132,109.4894 56.291391,96.92892 56.291391,108.0003 59.602649,96.048024 59.602649,108.8812 62.913907,95.702804 62.913907,109.22642 66.225166,96.011583 66.225166,108.91764 69.536424,92.091373 69.536424,112.83785 72.847682,90.888168 72.847682,114.04105 76.15894,90.924761 76.15894,114.00446 79.470199,90.344401 79.470199,114.58482 82.781457,88.486429 82.781457,116.44279 86.092715,87.815641 86.092715,117.11358 89.403974,86.250605 89.403974,118.67861 92.715232,87.313254 92.715232,117.61597 96.02649,87.485282 96.02649,117.44394 99.33774799999999,84.74006 99.33774799999999,120.18916 102.64900999999999,84.748002 102.64900999999999,120.18122 105.96025999999999,80.624427 105.96025999999999,124.30479 109.27152,83.881504 109.27152,121.04772 112.58278,82.472285 112.58278,122.45693 115.89404,80.578419 115.89404,124.3508 119.20530000000001,82.727654 119.20530000000001,122.20157 122.51656000000001,78.55265600000001 122.51656000000001,126.37656000000001 125.82781000000001,75.82516800000002 125.82781000000001,129.10405000000003 129.13907,77.18659400000003 129.13907,127.74263000000002 132.45033,80.36321000000001 132.45033,124.56601 135.76159,75.582558 135.76159,129.34666 139.07285000000002,75.24060700000001 139.07285000000002,129.68861 142.38411000000002,73.27859600000002 142.38411000000002,131.65062000000003 145.69536000000002,69.67120900000003 145.69536000000002,135.25801 149.00662000000003,71.69197500000001 149.00662000000003,133.23724 152.31788000000003,67.50664300000001 152.31788000000003,137.42258 155.62914000000004,68.41716900000002 155.62914000000004,136.51205000000002 158.94040000000004,58.084474000000014 158.94040000000004,146.84475000000003 162.25166000000004,66.93846300000003 162.25166000000004,137.99076000000002 165.56291000000004,67.00522000000002 165.56291000000004,137.924 168.87417000000005,66.271579 168.87417000000005,138.65764000000001 172.18543000000005,68.75345300000002 172.18543000000005,136.17577000000003 175.49669000000006,58.145441000000034 175.49669000000006,146.78378000000004 178.80795000000006,52.45503500000004 178.80795000000006,152.47418 182.11921000000007,54.326425999999984 182.11921000000007,150.60278999999997 185.43046000000007,57.91319499999997 185.43046000000007,147.01601999999997 188.74172000000007,58.017985999999965 188.74172000000007,146.91122999999996 192.05298000000008,55.46179299999996 192.05298000000008,149.46742999999995 195.36424000000008,55.218198999999956 195.36424000000008,149.71101999999996 198.67550000000008,60.49209599999996 198.67550000000008,144.43711999999996 201.9867500000001,51.11687299999997 201.9867500000001,153.81235 205.29801,46.90708 205.29801,158.02214 208.60927,44.015259 208.60927,160.91396 211.92053,34.164335 211.92053,170.76488 215.23179,45.964329 215.23179,158.96489 218.54305,37.340031 218.54305,167.58919 221.8543,21.515883 221.8543,183.41334 225.16556,21.620091 225.16556,183.30913 228.47682,39.789007 228.47682,165.14021 231.78808,56.190032 231.78808,148.73919 235.09934,52.034389000000004 235.09934,152.89483 238.41060000000002,61.464444000000015 238.41060000000002,143.46478000000002 241.72185000000002,52.12825000000002 241.72185000000002,152.80097 245.03311000000002,57.05304500000001 245.03311000000002,147.87617 248.34437000000003,50.872327 248.34437000000003,154.05689 251.65563000000003,57.400957000000005 251.65563000000003,147.52826 254.96689000000003,50.30332099999998 254.96689000000003,154.6259 258.27815,53.081934 258.27815,151.84729 261.5894,55.776223 261.5894,149.153 264.90066,55.076116999999996 264.90066,149.8531 268.21192,57.49995400000002 268.21192,147.42927000000003 271.52318,58.42268600000003 271.52318,146.50653 274.83444,44.978057 274.83444,159.95116 278.1457,57.857352 278.1457,147.07187 281.45695,15.801074 281.45695,189.12815 284.76821,11.758394 284.76821,193.17083 288.07947,14.247237 288.07947,190.68198 291.39073,13.176561 291.39073,191.75266 294.70199,19.790028 294.70199,185.13919 298.01325,16.813990000000018 298.01325,188.11523 301.3245,19.981804 301.3245,184.94742 304.63576,21.554348 304.63576,183.37487 307.94702,13.252062 307.94702,191.67716 311.25828,15.583882 311.25828,189.34534 314.56954,25.790734 314.56954,179.13849 317.88079,21.966399 317.88079,182.96282 321.19205,19.582186 321.19205,185.34703 324.50331,18.413286 324.50331,186.51593 327.81457,16.634458 327.81457,188.29476 331.12583,15.986402 331.12583,188.94282 334.43709,40.637555 334.43709,164.29166 337.74834,55.981579 337.74834,148.94764 341.0596,51.390188 341.0596,153.53903 344.37086,62.52707099999999 344.37086,142.40215 347.68212,54.561611 347.68212,150.36761 350.99338,56.96389300000001 350.99338,147.96533 354.30464,60.286581999999996 354.30464,144.64264 357.61589,73.608129 357.61589,131.32109 360.92715,52.442138 360.92715,152.48708 364.23841,50.910357 364.23841,154.01886 367.54967,55.20390999999999 367.54967,149.72530999999998 370.86093,57.850344999999976 370.86093,147.07887 374.17219,57.510560999999996 374.17219,147.41866 377.48344,62.92847499999999 377.48344,142.00074 380.7947,61.20249700000001 380.7947,143.72672 384.10596,66.015578 384.10596,138.91364 387.41722,43.30116699999999 387.41722,161.62805 390.72848,46.674654 390.72848,158.25457 394.03974,44.514184 394.03974,160.41504 397.35099,53.785123 397.35099,151.1441 400.66225,46.489186 400.66225,158.44003 403.97351,50.677947 403.97351,154.25127 407.28477,46.655438 407.28477,158.27378 410.59603,54.62980999999999 410.59603,150.29941 413.90728,42.75147 413.90728,162.17775 417.21854,44.30883 417.21854,160.62039 420.5298,47.595454 420.5298,157.33377 423.84106,44.284663 423.84106,160.64456 427.15232,40.75397 427.15232,164.17525 430.46358,51.048584 430.46358,153.88064 433.77483,47.904625 433.77483,157.02459 437.08609,51.437386 437.08609,153.49183 440.39735,14.752584 440.39735,190.17664 443.70861,15.068878 443.70861,189.86034 447.01987,16.702104 447.01987,188.22712 450.33113,12.306325 450.33113,192.62289 453.64238,19.972844 453.64238,184.95638 456.95364,12.266243 456.95364,192.66298 460.2649,20.237988 460.2649,184.69123 463.57616,25.95729 463.57616,178.97193 466.88742,22.05795 466.88742,182.87127 470.19868,18.919011 470.19868,186.01021 473.50993,25.340196 473.50993,179.58902 476.82119,25.27205 476.82119,179.65717 480.13245,24.336777 480.13245,180.59244 483.44371,20.533101 483.44371,184.39612 486.75497,13.417521 486.75497,191.5117 490.06623,10.973467 490.06623,193.95575 493.37748,61.59498199999999 493.37748,143.33424 496.68874,81.79901799999999 496.68874,123.1302 500.0,84.026624 500.0,120.9026 503.31126,83.414455 503.31126,121.51476 506.62252,85.611065 506.62252,119.31815 509.93377,86.794831 509.93377,118.13439 513.2450299999999,88.804628 513.2450299999999,116.12459 516.5562899999999,89.629965 516.5562899999999,115.29925 519.8675499999998,72.935739 519.8675499999998,131.99348 523.1788099999998,85.793893 523.1788099999998,119.13533 526.4900699999997,87.32985099999999 526.4900699999997,117.59937 529.8013199999997,87.697847 529.8013199999997,117.23137 533.1125799999996,87.3466 533.1125799999996,117.58261999999999 536.4238399999996,88.287858 536.4238399999996,116.64135999999999 539.7350999999995,81.724593 539.7350999999995,123.20463000000001 543.0463599999995,66.874201 543.0463599999995,138.05502 546.35762,36.95387 546.35762,167.97535 549.66887,48.85682 549.66887,156.0724 552.98013,45.232664 552.98013,159.69656 556.29139,54.260718 556.29139,150.6685 559.60265,40.861265 559.60265,164.06795 562.91391,48.400899 562.91391,156.52832 566.22517,40.60344 566.22517,164.32578 569.53642,49.719273 569.53642,155.20995 572.84768,44.490874 572.84768,160.43835 576.15894,49.420778 576.15894,155.50844 579.4702,52.136463 579.4702,152.79276 582.78146,49.420118 582.78146,155.5091 586.09272,50.01734 586.09272,154.91188 589.40397,48.990577 589.40397,155.93864 592.71523,51.844833 592.71523,153.08439 596.02649,62.39456900000002 596.02649,142.53465 599.3377499999999,61.134226 599.3377499999999,143.79498999999998 602.6490099999999,51.11317599999998 602.6490099999999,153.81604 605.9602599999998,74.10187199999999 605.9602599999998,130.82735 609.2715199999998,68.1096 609.2715199999998,136.81962 612.5827799999997,78.64829999999998 612.5827799999997,126.28091999999998 615.8940399999997,67.31819699999998 615.8940399999997,137.61102 619.2052999999996,77.747565 619.2052999999996,127.18164999999999 622.5165599999996,65.069537 622.5165599999996,139.85968 625.8278099999995,68.379926 625.8278099999995,136.54928999999998 629.1390699999995,61.46672499999998 629.1390699999995,143.46249 632.4503299999994,75.218682 632.4503299999994,129.71054 635.7615899999994,64.03621500000001 635.7615899999994,140.89301 639.0728499999993,71.557049 639.0728499999993,133.37217 642.3841099999993,63.260720000000006 642.3841099999993,141.6685 645.6953599999993,69.085585 645.6953599999993,135.84363 649.0066199999992,61.890501999999984 649.0066199999992,143.03871999999998 652.3178799999991,56.83107299999999 652.3178799999991,148.09814999999998 655.6291399999991,49.82324299999998 655.6291399999991,155.10598 658.940399999999,64.63429399999998 658.940399999999,140.29492999999997 662.251659999999,54.62584899999996 662.251659999999,150.30336999999997 665.562909999999,57.53525199999997 665.562909999999,147.39396999999997 668.8741699999989,54.097840999999974 668.8741699999989,150.83137999999997 672.1854299999989,64.63135999999997 672.1854299999989,140.29785999999996 675.4966899999988,54.56285299999996 675.4966899999988,150.36636999999996 678.8079499999988,60.02664399999996 678.8079499999988,144.90257999999994 682.1192099999987,59.12933199999995 682.1192099999987,145.79988999999995 685.4304599999987,65.02125299999994 685.4304599999987,139.90796999999995 688.7417199999986,52.210746999999955 688.7417199999986,152.71847 692.0529799999986,58.55030699999999 692.0529799999986,146.37891 695.3642399999985,54.183533 695.3642399999985,150.74569 698.6754999999985,61.577946 698.6754999999985,143.35127 701.9867499999984,60.315234000000004 701.9867499999984,144.61399 705.2980099999984,47.556028 705.2980099999984,157.37319 708.60927,49.98112 708.60927,154.9481 711.92053,57.521405000000016 711.92053,147.40781 715.2317899999999,54.15276200000001 715.2317899999999,150.77646000000001 718.5430499999999,61.34802500000002 718.5430499999999,143.58119000000002 721.8542999999999,57.763155000000026 721.8542999999999,147.16606000000002 725.1655599999998,53.40563300000001 725.1655599999998,151.52359 728.4768199999997,55.93194900000002 728.4768199999997,148.99727000000001 731.7880799999997,60.36003000000001 731.7880799999997,144.56919 735.0993399999996,57.95225199999999 735.0993399999996,146.97697 738.4105999999996,66.55565999999999 738.4105999999996,138.37356 741.7218499999996,67.525205 741.7218499999996,137.40401 745.0331099999995,56.200649 745.0331099999995,148.72857 748.3443699999995,51.99551199999999 748.3443699999995,152.93371 751.65563,42.736817 751.65563,162.1924 754.96689,37.57302 754.96689,167.3562 758.27815,73.572337 758.27815,131.35688 761.5894,82.82413 761.5894,122.10508999999999 764.9006599999999,85.70655699999999 764.9006599999999,119.22265999999999 768.2119199999999,76.55080299999999 768.2119199999999,128.37841999999998 771.5231799999998,83.00007899999997 771.5231799999998,121.92913999999996 774.8344399999997,81.59256599999996 774.8344399999997,123.33664999999996 778.1456999999997,83.41874399999996 778.1456999999997,121.51047999999996 781.4569499999997,86.10090299999996 781.4569499999997,118.82831999999996 784.7682099999996,75.90027899999995 784.7682099999996,129.02893999999995 788.0794699999996,67.12388199999995 788.0794699999996,137.80533999999994 791.3907299999995,74.32753499999995 791.3907299999995,130.60167999999996 794.7019899999995,67.35009199999996 794.7019899999995,137.57912999999996 798.0132499999994,72.98353299999997 798.0132499999994,131.94568999999996 801.3244999999994,76.89993599999995 801.3244999999994,128.02927999999997 804.6357599999993,74.03744499999996 804.6357599999993,130.89176999999995 807.9470199999993,81.64783699999995 807.9470199999993,123.28137999999996 811.2582799999992,56.85176299999996 811.2582799999992,148.07745999999997 814.5695399999992,49.33995999999998 814.5695399999992,155.58925999999997 817.8807899999991,60.45881899999996 817.8807899999991,144.4704 821.1920499999991,65.12969800000002 821.1920499999991,139.79952000000003 824.503309999999,54.65766300000003 824.503309999999,150.27156000000002 827.814569999999,52.72492800000002 827.814569999999,152.20429000000001 831.1258299999989,60.55768600000002 831.1258299999989,144.37153 834.4370899999989,58.619168 834.4370899999989,146.31005 837.74834,30.537876 837.74834,174.39134 841.0596,42.682027 841.0596,162.24719 844.37086,30.595978 844.37086,174.33324 847.68212,36.641919 847.68212,168.2873 850.99338,37.537242 850.99338,167.39198 854.30464,29.435659 854.30464,175.49356 857.61589,18.337946 857.61589,186.59127 860.92715,-0.6259338 860.92715,205.55515 864.23841,-1.5353902 864.23841,206.46461 867.54967,1.2264693 867.54967,203.70275 870.86093,6.981215 870.86093,197.948 874.17219,4.3965792 874.17219,200.53264 877.48344,13.597537 877.48344,191.33168 880.7947,3.2841004 880.7947,201.64512 884.10596,9.610343 884.10596,195.31888 887.41722,18.505562 887.41722,186.42366 890.72848,9.101662 890.72848,195.82756 894.03974,6.866516 894.03974,198.0627 897.35099,12.316012 897.35099,192.61321 900.66225,5.4670437 900.66225,199.46218 903.97351,14.750062 903.97351,190.17916 907.28477,5.7097088 907.28477,199.21951 910.59603,5.4207781 910.59603,199.50844 913.90728,5.730627 913.90728,199.19859 917.21854,2.9011639 917.21854,202.02806 920.5298,3.0510168 920.5298,201.8782 923.84106,7.4852875 923.84106,197.44393 927.15232,1.9144679 927.15232,203.01475 930.46358,11.244029 930.46358,193.68519 933.77483,1.2634496 933.77483,203.66577 937.08609,6.2438233 937.08609,198.6854 940.39735,16.812486 940.39735,188.11673 943.70861,5.8958764 943.70861,199.03334 947.01987,3.4973416 947.01987,201.43188 950.33113,6.5592649 950.33113,198.36995 953.64238,2.4586735 953.64238,202.47055 956.95364,9.818165 956.95364,195.11105 960.2649,7.2895908 960.2649,197.63963 963.57616,6.9143984 963.57616,198.01482 966.88742,10.208289 966.88742,194.72093 970.19868,75.93949200000002 970.19868,128.98973 973.5099299999999,93.28433900000002 973.5099299999999,111.64488000000001 976.8211899999999,98.09523000000002 976.8211899999999,106.83399000000001 980.1324499999998,100.24038000000002 980.1324499999998,104.68884000000001 983.4437099999998,101.41971000000001 983.4437099999998,103.50951 986.7549699999997,101.94252 986.7549699999997,102.9867 990.0662299999997,102.19932 990.0662299999997,102.72991 993.3774799999997,102.36269 993.3774799999997,102.56653 0.0,102.46461" fill="none" stroke="#008080" stroke-width="3" /></svg>